Coordinates
version=1
nRows=14
nColumns=40
inDegrees=yes

Units are S.I. units (second, meters, Newtons, ...)
Angles are in degrees.

endheader
time	pelvis_tilt	pelvis_list	pelvis_rotation	pelvis_tx	pelvis_ty	pelvis_tz	hip_flexion_r	hip_adduction_r	hip_rotation_r	knee_angle_r	knee_angle_r_beta	ankle_angle_r	subtalar_angle_r	mtp_angle_r	hip_flexion_l	hip_adduction_l	hip_rotation_l	knee_angle_l	knee_angle_l_beta	ankle_angle_l	subtalar_angle_l	mtp_angle_l	lumbar_extension	lumbar_bending	lumbar_rotation	arm_flex_r	arm_add_r	arm_rot_r	elbow_flex_r	pro_sup_r	wrist_flex_r	wrist_dev_r	arm_flex_l	arm_add_l	arm_rot_l	elbow_flex_l	pro_sup_l	wrist_flex_l	wrist_dev_l
      1.57000000	      0.81250411	     -5.40497208	      3.05047387	      0.03758091	      0.89754936	     -1.47239065	     16.25341054	      5.43905669	    -19.61779027	    -18.71808978	     -0.32669230	     -1.41074594	     -2.79534254	     -3.50592016	    -10.64828447	      7.89774750	     11.92884072	    -31.33264007	     -0.54685773	     -7.52105732	     -9.08374733	     -5.44891000	     -5.16118521	      7.85482435	     -3.13261687	      3.26392793	     -8.42891195	     25.31356620	     12.13304475	     89.95437384	      0.00000000	      0.00000000	     10.47930473	      7.87463018	    -12.60320966	     22.84727624	     89.95437384	      0.00000000	      0.00000000
      1.58000000	      0.44165374	     -5.73038413	      3.26543738	      0.04643097	      0.89742179	     -1.47122843	     16.09895548	      5.78688481	    -20.17568394	    -18.84833224	     -0.32896546	     -0.75497534	     -2.15481710	     -3.48275380	     -9.02941256	      8.91194996	     12.02843025	    -33.84811023	     -0.59076097	    -10.34080749	     -9.60321150	     -5.43559821	     -4.63687915	      8.11277573	     -3.12777939	      3.39157774	     -8.60422477	     25.53758622	     12.32200917	     89.95437384	      0.00000000	      0.00000000	      9.80016069	      7.81546084	    -12.96354208	     22.51786745	     89.95437384	      0.00000000	      0.00000000
      1.59000000	      0.51775611	     -5.65227810	      3.39565592	      0.05516918	      0.89792503	     -1.47032202	     15.45289765	      5.78660093	    -20.19813763	    -19.04724221	     -0.33243709	      0.09304122	     -1.96519894	     -3.51881066	     -8.03738504	      9.18336987	     11.53621136	    -35.94682529	     -0.62739046	    -12.73512304	     -8.50050173	     -5.07863555	     -4.70000684	      7.96646957	     -3.02567347	      3.68561409	     -8.70194312	     25.50359971	     12.44112649	     89.95437384	      0.00000000	      0.00000000	      9.33548393	      7.68912619	    -13.08720983	     21.89297537	     89.95437384	      0.00000000	      0.00000000
      1.60000000	      0.70113907	     -5.50883830	      3.33532074	      0.06350581	      0.89837329	     -1.46918879	     14.79839307	      5.72463616	    -20.10298474	    -19.39373989	     -0.33848462	      0.64679057	     -1.78692374	     -3.53163807	     -7.13222831	      9.23048965	     10.73452798	    -38.15140304	     -0.66586760	    -14.48003622	     -7.73644592	     -4.82366128	     -5.01044792	      7.73230437	     -2.60385625	      3.99547150	     -8.88199926	     25.39022852	     12.71167148	     89.95437384	      0.00000000	      0.00000000	      8.92096667	      7.59863936	    -13.15904645	     21.58912013	     89.95437384	      0.00000000	      0.00000000
      1.61000000	      0.87024101	     -5.68361172	      3.75694686	      0.07210239	      0.89858258	     -1.46858938	     14.06658425	      5.96067981	    -20.29068788	    -19.57089813	     -0.34157661	      1.66039860	     -1.56187302	     -3.63593833	     -5.93005017	      9.90975562	     10.13351793	    -40.58220913	     -0.70829317	    -16.07301891	     -7.01869294	     -4.74404518	     -5.09332160	      7.88357573	     -2.80472281	      4.36758976	     -9.00331165	     25.35593705	     12.78560224	     89.95437384	      0.00000000	      0.00000000	      8.58324873	      7.46425549	    -13.40509677	     20.70178447	     89.95437384	      0.00000000	      0.00000000
      1.62000000	      0.27786447	     -6.06784848	      4.06440007	      0.07964051	      0.89740732	     -1.46774932	     14.42083950	      6.22226810	    -21.09519233	    -20.04189447	     -0.34979705	      2.47845372	     -0.74913300	     -3.76535839	     -3.49287116	     10.68990943	      9.29579264	    -43.58726447	     -0.76074128	    -15.95496194	     -6.37426860	     -5.92864247	     -4.45912877	      8.21068255	     -2.87579830	      4.65295263	     -9.22151750	     25.12894063	     13.10140483	     89.95437384	      0.00000000	      0.00000000	      8.13466116	      7.31728139	    -13.49536548	     20.18471795	     89.95437384	      0.00000000	      0.00000000
      1.63000000	      0.71987822	     -5.88018649	      4.02292608	      0.08769773	      0.89795586	     -1.46691594	     13.45650974	      6.14290496	    -20.94356714	    -20.31445593	     -0.35455414	      2.97025608	     -0.67624746	     -3.77940722	     -2.71663499	     10.77703450	      9.13187532	    -45.73372939	     -0.79820416	    -15.38006809	     -5.91962429	     -6.04081362	     -5.09353101	      7.96532792	     -2.50378196	      5.14700193	     -9.40161483	     25.00054334	     13.31992898	     89.95437384	      0.00000000	      0.00000000	      7.83266461	      7.22353891	    -13.52618295	     19.72695079	     89.95437384	      0.00000000	      0.00000000
      1.64000000	      1.02356058	     -6.45360184	      4.43199186	      0.09591299	      0.89810171	     -1.46637482	     12.48738325	      6.92383191	    -21.08239084	    -20.13791351	     -0.35147290	      4.03088861	     -0.44808320	     -3.89498297	     -1.42490127	     11.70372470	      8.46194766	    -48.18666658	     -0.84101599	    -13.46739903	     -4.51740380	     -6.36802393	     -5.35399569	      8.58050245	     -2.52422321	      5.57327633	     -9.65190945	     24.85325944	     13.48894097	     89.95437384	      0.00000000	      0.00000000	      7.62872564	      6.96766563	    -13.75050157	     18.80191345	     89.95437384	      0.00000000	      0.00000000
      1.65000000	      1.24185812	     -6.62576499	      4.62649429	      0.10368890	      0.89827186	     -1.46583259	     11.65485572	      7.23521034	    -21.27166773	    -20.04190230	     -0.34979718	      4.52235385	     -0.35175667	     -3.89476189	     -0.05902548	     12.04242136	      7.90186539	    -50.44919489	     -0.88050456	    -11.63705108	     -2.83188309	     -6.63801163	     -5.65748453	      8.74046801	     -2.33752431	      6.00809721	     -9.91402022	     24.64881071	     13.81443492	     89.95437384	      0.00000000	      0.00000000	      7.34896926	      6.81189879	    -13.75118187	     18.29620170	     89.95437384	      0.00000000	      0.00000000
      1.66000000	      1.63904965	     -6.29986395	      4.52585053	      0.11152355	      0.89894450	     -1.46514084	     10.69979761	      7.01183958	    -21.18111884	    -20.23279224	     -0.35312884	      4.79185775	     -0.38994376	     -3.86387787	      0.84537958	     11.89509215	      7.90502082	    -52.15679785	     -0.91030785	    -11.02514912	     -2.36875162	     -6.69200123	     -6.25251047	      8.33731911	     -1.87333890	      6.50773280	    -10.09530752	     24.54031910	     14.03482623	     89.95437384	      0.00000000	      0.00000000	      7.01423267	      6.76923332	    -13.74065370	     18.02415706	     89.95437384	      0.00000000	      0.00000000
      1.67000000	      1.96004959	     -6.54082159	      4.94223614	      0.11938942	      0.89942561	     -1.46511822	      9.64920886	      7.46915152	    -21.10673904	    -19.90375635	     -0.34738608	      5.48678056	     -0.49462484	     -3.83403105	      2.16703169	     12.04509081	      6.91732313	    -54.06742342	     -0.94365456	     -8.42129445	      0.90032306	     -7.16378452	     -6.57573988	      8.62744922	     -1.90734850	      6.99757433	    -10.32988886	     24.28741456	     14.19859253	     89.95437384	      0.00000000	      0.00000000	      6.78718041	      6.55337283	    -13.75121667	     17.27853844	     89.95437384	      0.00000000	      0.00000000
      1.68000000	      2.38327556	     -6.36870329	      4.94006465	      0.12724462	      0.90027439	     -1.46458760	      8.57574334	      7.49000420	    -20.78336364	    -19.88678204	     -0.34708982	      6.16620684	     -0.51429634	     -3.85884266	      3.06378400	     11.89485092	      6.67485359	    -55.40781313	     -0.96704877	     -6.94157306	      1.74839896	     -7.42665761	     -7.11191042	      8.41836619	     -1.49599183	      7.53250839	    -10.50294889	     24.18086623	     14.28448382	     89.95437384	      0.00000000	      0.00000000	      6.56730546	      6.43363815	    -13.76386815	     16.71922929	     89.95437384	      0.00000000	      0.00000000
      1.69000000	      2.72095983	     -6.10559727	      4.96474247	      0.13508048	      0.90112663	     -1.46427050	      7.56015584	      7.40111159	    -20.43649095	    -19.78416633	     -0.34529884	      6.68985689	     -0.63798356	     -3.83841628	      4.03675477	     11.46126359	      6.21310708	    -56.50088651	     -0.98612650	     -5.60853286	      2.89190839	     -7.61990269	     -7.54509901	      8.11876521	     -1.13203207	      8.00132272	    -10.68647293	     23.97619277	     14.43059649	     89.95437384	      0.00000000	      0.00000000	      6.27970129	      6.34796807	    -13.71948287	     16.32034826	     89.95437384	      0.00000000	      0.00000000
      1.70000000	      2.93851227	     -5.74133314	      4.78188861	      0.14272604	      0.90193132	     -1.46357500	      6.76604476	      7.12048424	    -20.34154146	    -19.85806548	     -0.34658863	      6.84833843	     -0.69226982	     -3.79070088	      5.10358474	     11.04421602	      6.17616767	    -57.36207229	     -1.00115703	     -4.99679266	      3.07925719	     -7.65156009	     -7.89926608	      7.65087277	     -0.59718419	      8.46310457	    -10.87129101	     23.86753312	     14.61823625	     89.95437384	      0.00000000	      0.00000000	      5.87903553	      6.36620252	    -13.69114713	     16.21383123	     89.95437384	      0.00000000	      0.00000000
